<svg width="598.6" height="279.6" xmlns="http://www.w3.org/2000/svg">
 <style type="text/css">.st0{fill:#FF4500;}
	.st1{fill:#FFFFFF;}
	.st2{display:none;}
	.st3{display:inline;fill:none;stroke:#D8D8D8;stroke-width:0.4925;stroke-miterlimit:10;}
	.st4{display:inline;fill:none;stroke:#D8D8D8;stroke-width:0.5589;stroke-miterlimit:10;}
	.st5{display:inline;}</style>

 <g>
  <title>background</title>
  <rect fill="none" id="canvas_background" height="602" width="802" y="-1" x="-1"/>
 </g>
 <g>
  <title>Layer 1</title>
  <g id="Artwork">
   <circle id="svg_1" r="10.6" cy="97.529787" cx="495.4" class="st0"/>
   <path id="svg_2" d="m344,142.729787c5.2,0 8.2,-3.9 8,-7.7c-0.1,-2 -0.3,-3.3 -0.5,-4.3c-3.2,-13.8 -14.4,-24 -27.7,-24c-15.8,0 -28.6,14.3 -28.6,31.9c0,17.6 12.8,31.9 28.6,31.9c9.9,0 17,-3.6 22.1,-9.3c2.5,-2.8 2,-7.1 -1,-9.2c-2.5,-1.7 -5.6,-1.1 -7.9,0.8c-2.2,1.9 -6.4,5.7 -13.2,5.7c-8,0 -14.8,-6.9 -16.3,-16l36.5,0l0,0.2zm-20.3,-23.9c7.2,0 13.4,5.6 15.7,13.3l-31.4,0c2.3,-7.8 8.5,-13.3 15.7,-13.3z" class="st1"/>
   <path id="svg_3" d="m295.8,113.029787c0,-3 -2.2,-5.4 -5,-5.9c-8.7,-1.3 -16.9,1.9 -21.6,7.8l0,-0.8c0,-3.7 -3,-6 -6,-6c-3.3,0 -6,2.7 -6,6l0,49c0,3.2 2.4,6 5.6,6.2c3.5,0.2 6.4,-2.5 6.4,-6l0,-25.3c0,-11.2 8.4,-20.4 20,-19.1c0.4,0 0.8,0 1.2,0c3,-0.2 5.4,-2.8 5.4,-5.9z" class="st1"/>
   <path id="svg_4" d="m501.4,119.429787c0,-3.3 -2.7,-6 -6,-6s-6,2.7 -6,6c0,0.2 0,42 0,43.9c0,3.3 2.7,6 6,6s6,-2.7 6,-6c0,-1.8 0,-43.6 0,-43.9z" class="st1"/>
   <path id="svg_5" d="m412.2,86.229787c0,-3.3 -2.7,-6 -6,-6l0,0c-3.3,0 -6,2.7 -6,6l0,26.7c-4.1,-4.1 -9.2,-6.1 -15.3,-6.1c-15.8,0 -28.6,14.3 -28.6,31.9c0,17.6 12.8,31.9 28.6,31.9c6.1,0 11.3,-2.1 15.4,-6.2c0.5,2.8 3,4.9 5.9,4.9c3.3,0 6,-2.7 6,-6c0,0 0,-77.1 0,-77.1zm-27.2,72.5c-9.2,0 -16.6,-8.9 -16.6,-20c0,-11 7.4,-20 16.6,-20c9.2,0 16.6,8.9 16.6,20c0,11.1 -7.5,20 -16.6,20z" class="st1"/>
   <path id="svg_6" d="m474.8,86.229787c0,-3.3 -2.7,-6 -6,-6l0,0c-3.3,0 -6,2.7 -6,6l0,26.7c-4.1,-4.1 -9.2,-6.1 -15.3,-6.1c-15.8,0 -28.6,14.3 -28.6,31.9c0,17.6 12.8,31.9 28.6,31.9c6.1,0 11.3,-2.1 15.4,-6.2c0.5,2.8 3,4.9 5.9,4.9c3.3,0 6,-2.7 6,-6c0,0 0,-77.1 0,-77.1zm-27.3,72.5c-9.2,0 -16.6,-8.9 -16.6,-20c0,-11 7.4,-20 16.6,-20c9.2,0 16.6,8.9 16.6,20c0,11.1 -7.4,20 -16.6,20z" class="st1"/>
   <path id="svg_7" d="m531.8,163.429787l0,-44.6l5.3,0c2.8,0 5.3,-2.1 5.5,-5c0.2,-3.1 -2.3,-5.7 -5.3,-5.7l-5.5,0l0,-8.4c0,-3.2 -2.4,-6 -5.6,-6.2c-3.5,-0.2 -6.4,2.5 -6.4,6l0,8.7l-5,0c-2.8,0 -5.3,2.1 -5.5,5c-0.2,3.1 2.3,5.7 5.3,5.7l5.1,0l0,44.6c0,3.3 2.7,6 6,6l0,0c3.5,-0.2 6.1,-2.8 6.1,-6.1z" class="st1"/>
   <g id="svg_8">
    <circle id="svg_9" r="83.8" cy="139.8" cx="139.8" class="st0"/>
    <path id="svg_10" d="m195.7,139.8c0,-6.8 -5.5,-12.2 -12.2,-12.2c-3.3,0 -6.3,1.3 -8.5,3.4c-8.4,-6 -19.9,-9.9 -32.7,-10.4l5.6,-26.2l18.2,3.9c0.2,4.6 4,8.3 8.7,8.3c4.8,0 8.7,-3.9 8.7,-8.7c0,-4.8 -3.9,-8.7 -8.7,-8.7c-3.4,0 -6.4,2 -7.8,4.9l-20.3,-4.3c-0.6,-0.1 -1.2,0 -1.6,0.3c-0.5,0.3 -0.8,0.8 -0.9,1.4l-6.2,29.2c-13,0.4 -24.7,4.3 -33.2,10.4c-2.2,-2.1 -5.2,-3.4 -8.5,-3.4c-6.8,0 -12.2,5.5 -12.2,12.2c0,5 3,9.2 7.2,11.1c-0.2,1.2 -0.3,2.4 -0.3,3.7c0,18.8 21.9,34.1 48.9,34.1s48.9,-15.2 48.9,-34.1c0,-1.2 -0.1,-2.5 -0.3,-3.7c4.2,-1.9 7.2,-6.2 7.2,-11.2zm-83.8,8.7c0,-4.8 3.9,-8.7 8.7,-8.7c4.8,0 8.7,3.9 8.7,8.7c0,4.8 -3.9,8.7 -8.7,8.7c-4.8,0.1 -8.7,-3.9 -8.7,-8.7zm48.7,23.1c-6,6 -17.4,6.4 -20.7,6.4c-3.4,0 -14.8,-0.5 -20.7,-6.4c-0.9,-0.9 -0.9,-2.3 0,-3.2c0.9,-0.9 2.3,-0.9 3.2,0c3.8,3.8 11.8,5.1 17.5,5.1c5.7,0 13.8,-1.3 17.5,-5.1c0.9,-0.9 2.3,-0.9 3.2,0c0.8,0.9 0.8,2.3 0,3.2zm-1.6,-14.3c-4.8,0 -8.7,-3.9 -8.7,-8.7c0,-4.8 3.9,-8.7 8.7,-8.7c4.8,0 8.7,3.9 8.7,8.7c0,4.7 -3.9,8.7 -8.7,8.7z" class="st1"/>
   </g>
  </g>
  <g class="st2" id="Spacing_Guides">
   <rect id="svg_11" height="55.9" width="598.6" class="st3"/>
   <rect id="svg_12" height="55.9" width="598.6" class="st3" y="223.6"/>
   <rect id="svg_13" height="279.6" width="55.9" class="st4" x="0"/>
   <rect id="svg_14" height="279.6" width="55.9" class="st4" x="542.7"/>
   <g class="st5" id="reddit_round"/>
   <g class="st5" id="icon_2"/>
  </g>
 </g>
</svg>