<svg width="500" height="500" xmlns="http://www.w3.org/2000/svg">
 <style type="text/css">.st0{fill:#FF4500;}
	.st1{fill:#FFFFFF;}
	.st2{display:none;}
	.st3{display:inline;fill:none;stroke:#D8D8D8;stroke-width:0.5;stroke-miterlimit:10;}</style>

 <g>
  <title>background</title>
  <rect fill="none" id="canvas_background" height="502" width="502" y="-1" x="-1"/>
 </g>
 <g>
  <title>Layer 1</title>
  <g stroke="null" id="Artwork">
   <g stroke="null" id="svg_1">
    <ellipse stroke="null" ry="249" rx="249" id="svg_9" cy="249" cx="249" stroke-opacity="null" stroke-width="null" fill="#7289da"/>
    <path stroke="null" id="svg_3" d="m414.461924,249.244134c0,-19.992157 -16.225519,-36.217676 -36.217676,-36.217676c-9.851208,0 -18.54345,3.766638 -24.917761,10.140949c-24.628019,-17.674226 -58.817505,-29.263882 -96.483888,-30.712589l16.51526,-77.360955l53.60216,11.299915c0.579483,13.617846 11.879398,24.628019 25.786985,24.628019c14.197329,0 25.786985,-11.589656 25.786985,-25.786985c0,-14.197329 -11.589656,-25.786985 -25.786985,-25.786985c-10.140949,0 -18.833191,5.794828 -22.889571,14.48707l-59.976471,-12.748622c-1.738448,-0.289741 -3.476897,0 -4.925604,0.869224c-1.448707,0.869224 -2.317931,2.317931 -2.897414,4.05638l-18.253709,86.342939c-38.535607,1.158966 -73.014834,12.45888 -97.932595,30.712589c-6.374311,-6.08457 -15.356294,-10.140949 -24.917761,-10.140949c-19.992157,0 -36.217676,16.225519 -36.217676,36.217676c0,14.776812 8.692242,27.235692 21.440864,33.03052c-0.579483,3.476897 -0.869224,7.243535 -0.869224,11.010173c0,55.63035 64.612333,100.540268 144.580961,100.540268s144.580961,-44.909918 144.580961,-100.540268c0,-3.766638 -0.289741,-7.243535 -0.869224,-10.720432c11.879398,-5.794828 20.861381,-18.54345 20.861381,-33.320262zm-247.728901,25.786985c0,-14.197329 11.589656,-25.786985 25.786985,-25.786985c14.197329,0 25.786985,11.589656 25.786985,25.786985c0,14.197329 -11.589656,25.786985 -25.786985,25.786985c-14.197329,0 -25.786985,-11.589656 -25.786985,-25.786985zm144.001478,68.08923c-17.674226,17.674226 -51.284229,18.833191 -61.135437,18.833191c-9.851208,0 -43.750952,-1.448707 -61.135437,-18.833191c-2.607673,-2.607673 -2.607673,-6.953794 0,-9.561466c2.607673,-2.607673 6.953794,-2.607673 9.561466,0c11.010173,11.010173 34.768969,15.066553 51.863712,15.066553s40.563797,-4.05638 51.863712,-15.066553c2.607673,-2.607673 6.953794,-2.607673 9.561466,0c2.02819,2.897414 2.02819,6.953794 -0.579483,9.561466zm-4.635862,-42.302245c-14.197329,0 -25.786985,-11.589656 -25.786985,-25.786985c0,-14.197329 11.589656,-25.786985 25.786985,-25.786985c14.197329,0 25.786985,11.589656 25.786985,25.786985c0,14.197329 -11.589656,25.786985 -25.786985,25.786985z" class="st1"/>
   </g>
  </g>
  <g class="st2" id="Spacing_Guide">
   <rect id="svg_4" height="85.4" width="85.4" class="st3"/>
   <rect id="svg_5" height="85.4" width="341.8" class="st3"/>
   <rect id="svg_6" height="85.4" width="341.8" class="st3" y="256.3"/>
   <rect id="svg_7" height="341.8" width="85.4" class="st3"/>
   <rect id="svg_8" height="341.8" width="85.4" class="st3" x="256.4"/>
  </g>
 </g>
</svg>