<svg width="341.8" height="341.8" xmlns="http://www.w3.org/2000/svg">
 <style type="text/css">.st0{fill:#FF4500;}
	.st1{fill:#FFFFFF;}
	.st2{display:none;}
	.st3{display:inline;fill:none;stroke:#D8D8D8;stroke-width:0.5;stroke-miterlimit:10;}</style>

 <g>
  <title>background</title>
  <rect fill="#7289da" id="canvas_background" height="343.8" width="343.8" y="-1" x="-1"/>
 </g>
 <g>
  <title>Layer 1</title>
  <g stroke="null" id="Artwork">
   <g stroke="null" id="svg_1">
    <path stroke="null" id="svg_3" d="m284.310274,170.900015c0,-13.728612 -11.142062,-24.870674 -24.870674,-24.870674c-6.764823,0 -12.733785,2.58655 -17.111024,6.963789c-16.912058,-12.136889 -40.389975,-20.095505 -66.255476,-21.090332l11.341027,-53.12376l36.808598,7.75965c0.397931,9.351374 8.157581,16.912058 17.70792,16.912058c9.749304,0 17.70792,-7.958616 17.70792,-17.70792c0,-9.749304 -7.958616,-17.70792 -17.70792,-17.70792c-6.963789,0 -12.932751,3.979308 -15.718266,9.94827l-41.185837,-8.754477c-1.193792,-0.198965 -2.387585,0 -3.382412,0.596896c-0.994827,0.596896 -1.591723,1.591723 -1.989654,2.785516l-12.53482,59.291687c-26.462397,0.795862 -50.139279,8.555512 -67.250303,21.090332c-4.377239,-4.178273 -10.545166,-6.963789 -17.111024,-6.963789c-13.728612,0 -24.870674,11.142062 -24.870674,24.870674c0,10.147235 5.968962,18.702747 14.723439,22.682055c-0.397931,2.387585 -0.596896,4.974135 -0.596896,7.560685c0,38.201356 44.369283,69.040992 99.283732,69.040992s99.283732,-30.839636 99.283732,-69.040992c0,-2.58655 -0.198965,-4.974135 -0.596896,-7.36172c8.157581,-3.979308 14.325508,-12.733785 14.325508,-22.88102zm-170.115412,17.70792c0,-9.749304 7.958616,-17.70792 17.70792,-17.70792c9.749304,0 17.70792,7.958616 17.70792,17.70792c0,9.749304 -7.958616,17.70792 -17.70792,17.70792c-9.749304,0 -17.70792,-7.958616 -17.70792,-17.70792zm98.885801,46.756868c-12.136889,12.136889 -35.216875,12.932751 -41.981698,12.932751c-6.764823,0 -30.043774,-0.994827 -41.981698,-12.932751c-1.790689,-1.790689 -1.790689,-4.775169 0,-6.565858c1.790689,-1.790689 4.775169,-1.790689 6.565858,0c7.560685,7.560685 23.875847,10.3462 35.614806,10.3462s27.855155,-2.785516 35.614806,-10.3462c1.790689,-1.790689 4.775169,-1.790689 6.565858,0c1.392758,1.989654 1.392758,4.775169 -0.397931,6.565858zm-3.183446,-29.048948c-9.749304,0 -17.70792,-7.958616 -17.70792,-17.70792c0,-9.749304 7.958616,-17.70792 17.70792,-17.70792c9.749304,0 17.70792,7.958616 17.70792,17.70792c0,9.749304 -7.958616,17.70792 -17.70792,17.70792z" class="st1"/>
   </g>
  </g>
  <g class="st2" id="Spacing_Guide">
   <rect id="svg_4" height="85.4" width="85.4" class="st3"/>
   <rect id="svg_5" height="85.4" width="341.8" class="st3"/>
   <rect id="svg_6" height="85.4" width="341.8" class="st3" y="256.3"/>
   <rect id="svg_7" height="341.8" width="85.4" class="st3"/>
   <rect id="svg_8" height="341.8" width="85.4" class="st3" x="256.4"/>
  </g>
 </g>
</svg>